# xmcd
#
# Track frame offsets:
#	150
#	12817
#	23880
#
# Disc length: 522 seconds
#
# Revision: 0
# Processed by: cddbd v1.5.2PL0 Copyright (c) Steve Scherf et al.
# Submitted via: audiograbber 1.83.01
#
DISCID=16020803
DTITLE=Hullujussi - Bingo Bango Bongo [CDS)
DYEAR=2003
DGENRE=Pop
TTITLE0=Bingo Bango Bongo (Juhlaotto 2003)
TTITLE1=Bingo Bango Bongo (Original)
TTITLE2=Bingo Bango Bongo (Re-mix 2003)
EXTD=TR.
EXTT0=
EXTT1=
EXTT2=
PLAYORDER=
